<svg
  width="256"
  height="256"
  viewBox="0 0 256 256"
  fill="none"
  xmlns="http://www.w3.org/2000/svg"
>
<circle cx="128" cy="128" r="128" fill="#0B0B0B" />
<g filter="url(#filter0_d_515_2)">
<path
      d="M140.899 82.2535L118.611 121.64L73.3577 122.032L50.3918 83.0369L72.6792 43.6505L117.933 43.2588L140.899 82.2535Z"
      fill="#EDD899"
    />
<path
      d="M196.611 166.64L218.898 127.254L195.932 88.2589L150.679 88.6506L128.392 128.037L135.246 139.676L169 123L164.5 113.5L190 115.5L181.5 141L176.5 132L144.167 154.823L151.357 167.032L196.611 166.64Z"
      fill="#EDD899"
    />
<path
      d="M134.607 161.572L140.898 172.254L118.611 211.64L73.3575 212.032L50.3916 173.037L72.6791 133.651L117.932 133.259L124.762 144.856L85 164.5L100 168.5V186L134.607 161.572Z"
      fill="#EDD899"
    />
</g>
<defs>
<filter
      id="filter0_d_515_2"
      x="31.3916"
      y="35.2588"
      width="206.507"
      height="206.773"
      filterUnits="userSpaceOnUse"
      color-interpolation-filters="sRGB"
    >
<feFlood flood-opacity="0" result="BackgroundImageFix" />
<feColorMatrix
        in="SourceAlpha"
        type="matrix"
        values="0 0 0 0 0 0 0 0 0 0 0 0 0 0 0 0 0 0 127 0"
        result="hardAlpha"
      />
<feOffset dy="11" />
<feGaussianBlur stdDeviation="9.5" />
<feComposite in2="hardAlpha" operator="out" />
<feColorMatrix
        type="matrix"
        values="0 0 0 0 0.691667 0 0 0 0 0.645555 0 0 0 0 0.507222 0 0 0 0.1 0"
      />
<feBlend
        mode="normal"
        in2="BackgroundImageFix"
        result="effect1_dropShadow_515_2"
      />
<feBlend
        mode="normal"
        in="SourceGraphic"
        in2="effect1_dropShadow_515_2"
        result="shape"
      />
</filter>
</defs>
</svg>